<mxfile host="app.diagrams.net" modified="2024-05-20T16:05:10.850Z" agent="Mozilla/5.0 (X11; Linux x86_64) AppleWebKit/537.36 (KHTML, like Gecko) Chrome/125.0.0.0 Safari/537.36" etag="wNxLOSBgnvJDCuspwFbm" version="24.4.4" type="device">
  <diagram name="Página-1" id="O9kjTJLdL5A6F5IFprGk">
    <mxGraphModel dx="1050" dy="575" grid="1" gridSize="10" guides="1" tooltips="1" connect="1" arrows="1" fold="1" page="1" pageScale="1" pageWidth="827" pageHeight="1169" math="0" shadow="0">
      <root>
        <mxCell id="0" />
        <mxCell id="1" parent="0" />
        <mxCell id="hwbZbBb7spSw9nYf6J0F-9" value="" style="edgeStyle=orthogonalEdgeStyle;rounded=0;orthogonalLoop=1;jettySize=auto;html=1;" edge="1" parent="1" source="hwbZbBb7spSw9nYf6J0F-1" target="hwbZbBb7spSw9nYf6J0F-2">
          <mxGeometry relative="1" as="geometry" />
        </mxCell>
        <mxCell id="hwbZbBb7spSw9nYf6J0F-1" value="&lt;font style=&quot;font-size: 14px;&quot;&gt;Iniciar&amp;nbsp;&lt;/font&gt;&lt;div&gt;&lt;font size=&quot;3&quot;&gt;sistema&lt;/font&gt;&lt;/div&gt;" style="ellipse;whiteSpace=wrap;html=1;" vertex="1" parent="1">
          <mxGeometry x="130" y="140" width="120" height="60" as="geometry" />
        </mxCell>
        <mxCell id="hwbZbBb7spSw9nYf6J0F-10" value="" style="edgeStyle=orthogonalEdgeStyle;rounded=0;orthogonalLoop=1;jettySize=auto;html=1;" edge="1" parent="1" source="hwbZbBb7spSw9nYf6J0F-2" target="hwbZbBb7spSw9nYf6J0F-5">
          <mxGeometry relative="1" as="geometry" />
        </mxCell>
        <mxCell id="hwbZbBb7spSw9nYf6J0F-2" value="&lt;div&gt;&lt;span style=&quot;color: rgb(13, 13, 13); font-family: Söhne, ui-sans-serif, system-ui, -apple-system, &amp;quot;Segoe UI&amp;quot;, Roboto, Ubuntu, Cantarell, &amp;quot;Noto Sans&amp;quot;, sans-serif, &amp;quot;Helvetica Neue&amp;quot;, Arial, &amp;quot;Apple Color Emoji&amp;quot;, &amp;quot;Segoe UI Emoji&amp;quot;, &amp;quot;Segoe UI Symbol&amp;quot;, &amp;quot;Noto Color Emoji&amp;quot;; text-align: left; white-space-collapse: preserve; background-color: rgb(255, 255, 255);&quot;&gt;&lt;font style=&quot;font-size: 12px;&quot;&gt;Leitura de dados do Sensor de Temperatura&lt;/font&gt;&lt;/span&gt;&lt;/div&gt;" style="rounded=0;whiteSpace=wrap;html=1;" vertex="1" parent="1">
          <mxGeometry x="120" y="230" width="140" height="60" as="geometry" />
        </mxCell>
        <mxCell id="hwbZbBb7spSw9nYf6J0F-11" value="" style="edgeStyle=orthogonalEdgeStyle;rounded=0;orthogonalLoop=1;jettySize=auto;html=1;" edge="1" parent="1" source="hwbZbBb7spSw9nYf6J0F-5" target="hwbZbBb7spSw9nYf6J0F-6">
          <mxGeometry relative="1" as="geometry" />
        </mxCell>
        <mxCell id="hwbZbBb7spSw9nYf6J0F-5" value="Processamento dos dados do sensor" style="shape=process;whiteSpace=wrap;html=1;backgroundOutline=1;" vertex="1" parent="1">
          <mxGeometry x="130" y="330" width="120" height="60" as="geometry" />
        </mxCell>
        <mxCell id="hwbZbBb7spSw9nYf6J0F-22" value="" style="edgeStyle=orthogonalEdgeStyle;rounded=0;orthogonalLoop=1;jettySize=auto;html=1;" edge="1" parent="1" source="hwbZbBb7spSw9nYf6J0F-6" target="hwbZbBb7spSw9nYf6J0F-21">
          <mxGeometry relative="1" as="geometry" />
        </mxCell>
        <mxCell id="hwbZbBb7spSw9nYf6J0F-6" value="&lt;div&gt;Enviar dados&amp;nbsp;&lt;span style=&quot;background-color: initial;&quot;&gt;&amp;nbsp;&lt;/span&gt;&lt;/div&gt;&lt;div&gt;&lt;span style=&quot;background-color: initial;&quot;&gt;para&amp;nbsp;&lt;/span&gt;&lt;span style=&quot;background-color: initial;&quot;&gt;Node-RED&lt;/span&gt;&lt;/div&gt;" style="shape=parallelogram;perimeter=parallelogramPerimeter;whiteSpace=wrap;html=1;fixedSize=1;" vertex="1" parent="1">
          <mxGeometry x="125" y="430" width="130" height="50" as="geometry" />
        </mxCell>
        <mxCell id="hwbZbBb7spSw9nYf6J0F-15" value="" style="edgeStyle=orthogonalEdgeStyle;rounded=0;orthogonalLoop=1;jettySize=auto;html=1;" edge="1" parent="1" source="hwbZbBb7spSw9nYf6J0F-12" target="hwbZbBb7spSw9nYf6J0F-14">
          <mxGeometry relative="1" as="geometry" />
        </mxCell>
        <mxCell id="hwbZbBb7spSw9nYf6J0F-12" value="Leitura de dados seriais vindos do Node-RED" style="whiteSpace=wrap;html=1;" vertex="1" parent="1">
          <mxGeometry x="130" y="524.5" width="120" height="60" as="geometry" />
        </mxCell>
        <mxCell id="hwbZbBb7spSw9nYf6J0F-17" value="" style="edgeStyle=orthogonalEdgeStyle;rounded=0;orthogonalLoop=1;jettySize=auto;html=1;" edge="1" parent="1" source="hwbZbBb7spSw9nYf6J0F-14" target="hwbZbBb7spSw9nYf6J0F-16">
          <mxGeometry relative="1" as="geometry" />
        </mxCell>
        <mxCell id="hwbZbBb7spSw9nYf6J0F-14" value="Ativar&amp;nbsp;&lt;div&gt;Relé?&lt;/div&gt;" style="rhombus;whiteSpace=wrap;html=1;" vertex="1" parent="1">
          <mxGeometry x="150" y="620" width="80" height="80" as="geometry" />
        </mxCell>
        <mxCell id="hwbZbBb7spSw9nYf6J0F-16" value="Ativar/Desativar&lt;div&gt;Relé&lt;/div&gt;" style="whiteSpace=wrap;html=1;" vertex="1" parent="1">
          <mxGeometry x="130" y="740" width="120" height="60" as="geometry" />
        </mxCell>
        <mxCell id="hwbZbBb7spSw9nYf6J0F-24" value="" style="edgeStyle=orthogonalEdgeStyle;rounded=0;orthogonalLoop=1;jettySize=auto;html=1;" edge="1" parent="1" source="hwbZbBb7spSw9nYf6J0F-21" target="hwbZbBb7spSw9nYf6J0F-23">
          <mxGeometry relative="1" as="geometry" />
        </mxCell>
        <mxCell id="hwbZbBb7spSw9nYf6J0F-21" value="Node-RED processa dados" style="shape=process;whiteSpace=wrap;html=1;backgroundOutline=1;" vertex="1" parent="1">
          <mxGeometry x="320" y="425" width="120" height="60" as="geometry" />
        </mxCell>
        <mxCell id="hwbZbBb7spSw9nYf6J0F-26" value="" style="edgeStyle=orthogonalEdgeStyle;rounded=0;orthogonalLoop=1;jettySize=auto;html=1;" edge="1" parent="1" source="hwbZbBb7spSw9nYf6J0F-23" target="hwbZbBb7spSw9nYf6J0F-25">
          <mxGeometry relative="1" as="geometry" />
        </mxCell>
        <mxCell id="hwbZbBb7spSw9nYf6J0F-23" value="Publicar no MQTT?" style="rhombus;whiteSpace=wrap;html=1;" vertex="1" parent="1">
          <mxGeometry x="500" y="412.5" width="100" height="85" as="geometry" />
        </mxCell>
        <mxCell id="hwbZbBb7spSw9nYf6J0F-28" value="" style="edgeStyle=orthogonalEdgeStyle;rounded=0;orthogonalLoop=1;jettySize=auto;html=1;" edge="1" parent="1" source="hwbZbBb7spSw9nYf6J0F-25" target="hwbZbBb7spSw9nYf6J0F-27">
          <mxGeometry relative="1" as="geometry" />
        </mxCell>
        <mxCell id="hwbZbBb7spSw9nYf6J0F-25" value="Publicar Dados&lt;div&gt;no MQTT&lt;/div&gt;" style="whiteSpace=wrap;html=1;" vertex="1" parent="1">
          <mxGeometry x="650" y="425" width="120" height="60" as="geometry" />
        </mxCell>
        <mxCell id="hwbZbBb7spSw9nYf6J0F-30" value="" style="edgeStyle=orthogonalEdgeStyle;rounded=0;orthogonalLoop=1;jettySize=auto;html=1;" edge="1" parent="1" source="hwbZbBb7spSw9nYf6J0F-27" target="hwbZbBb7spSw9nYf6J0F-29">
          <mxGeometry relative="1" as="geometry" />
        </mxCell>
        <mxCell id="hwbZbBb7spSw9nYf6J0F-27" value="Receber dados MQTT" style="whiteSpace=wrap;html=1;" vertex="1" parent="1">
          <mxGeometry x="650" y="525" width="120" height="60" as="geometry" />
        </mxCell>
        <mxCell id="hwbZbBb7spSw9nYf6J0F-34" value="" style="edgeStyle=orthogonalEdgeStyle;rounded=0;orthogonalLoop=1;jettySize=auto;html=1;" edge="1" parent="1" source="hwbZbBb7spSw9nYf6J0F-29" target="hwbZbBb7spSw9nYf6J0F-33">
          <mxGeometry relative="1" as="geometry" />
        </mxCell>
        <mxCell id="hwbZbBb7spSw9nYf6J0F-29" value="Processar dados Recebidos" style="shape=process;whiteSpace=wrap;html=1;backgroundOutline=1;" vertex="1" parent="1">
          <mxGeometry x="490" y="525" width="120" height="60" as="geometry" />
        </mxCell>
        <mxCell id="hwbZbBb7spSw9nYf6J0F-35" value="" style="edgeStyle=orthogonalEdgeStyle;rounded=0;orthogonalLoop=1;jettySize=auto;html=1;" edge="1" parent="1" source="hwbZbBb7spSw9nYf6J0F-33" target="hwbZbBb7spSw9nYf6J0F-12">
          <mxGeometry relative="1" as="geometry" />
        </mxCell>
        <mxCell id="hwbZbBb7spSw9nYf6J0F-33" value="Enviar dados&lt;div&gt;para Arduino&lt;/div&gt;" style="shape=parallelogram;perimeter=parallelogramPerimeter;whiteSpace=wrap;html=1;fixedSize=1;" vertex="1" parent="1">
          <mxGeometry x="320" y="532" width="120" height="45" as="geometry" />
        </mxCell>
      </root>
    </mxGraphModel>
  </diagram>
</mxfile>
